<?xml version="1.0" standalone="no"?>
<!DOCTYPE svg PUBLIC "-//W3C//DTD SVG 20010904//EN"
 "http://www.w3.org/TR/2001/REC-SVG-20010904/DTD/svg10.dtd">
<svg version="1.0" xmlns="http://www.w3.org/2000/svg"
 width="1080.000000pt" height="1080.000000pt" viewBox="0 0 1080.000000 1080.000000"
 preserveAspectRatio="xMidYMid meet">
<metadata>
Created by potrace 1.14, written by Peter Selinger 2001-2017
</metadata>
<g transform="translate(0.000000,1080.000000) scale(0.100000,-0.100000)"
fill="#000000" stroke="none">
<path d="M5803 10556 c6 -16 5 -17 -7 -7 -11 9 -16 9 -22 0 -5 -8 -3 -10 7 -5
8 4 5 0 -5 -8 -11 -9 -16 -16 -10 -16 5 0 2 -5 -6 -10 -13 -8 -12 -10 4 -10
20 0 20 0 0 -16 -19 -15 -19 -16 1 -9 16 5 17 4 8 -6 -10 -10 -10 -16 0 -27
10 -13 9 -14 -13 -2 -23 12 -24 12 -11 -3 10 -13 10 -17 1 -17 -10 0 -10 -3
-1 -14 9 -10 9 -16 1 -21 -8 -5 -7 -11 2 -23 8 -9 8 -13 2 -9 -7 4 -15 0 -18
-9 -5 -12 -2 -15 11 -10 16 6 16 6 0 -11 -10 -12 -13 -23 -7 -33 5 -8 5 -19 1
-25 -4 -5 -7 -17 -6 -25 0 -8 -4 -18 -10 -22 -6 -5 -5 -8 4 -8 10 0 10 -6 -4
-26 -9 -15 -12 -23 -6 -20 12 8 14 -1 11 -59 -1 -22 -7 -46 -13 -53 -6 -7 -6
-12 -1 -11 23 4 26 -2 8 -17 -10 -8 -13 -13 -6 -9 6 3 12 2 12 -4 0 -5 -6 -12
-12 -14 -10 -4 -10 -6 0 -6 6 -1 12 -8 12 -17 0 -8 -4 -13 -9 -9 -6 3 -8 -3
-6 -15 2 -11 1 -19 -3 -19 -19 3 -23 -2 -12 -16 11 -13 10 -14 -3 -9 -12 4
-14 1 -10 -18 4 -13 11 -26 17 -30 7 -5 5 -8 -5 -8 -12 0 -14 -8 -11 -30 2
-17 -1 -37 -8 -45 -11 -13 -10 -15 6 -9 18 5 18 5 2 -9 -14 -11 -15 -16 -5
-26 9 -10 8 -11 -4 -6 -10 4 -20 1 -24 -4 -3 -6 -11 -8 -17 -5 -5 4 -4 -4 3
-17 11 -22 11 -23 -5 -10 -14 12 -16 12 -10 -2 6 -17 -28 -41 -42 -29 -5 4 -2
-2 6 -12 14 -18 14 -19 -9 -6 -21 11 -23 10 -18 -4 3 -8 2 -18 -3 -21 -4 -3
-11 1 -13 7 -4 10 -6 10 -6 0 -1 -8 -6 -10 -13 -6 -9 5 -8 2 1 -9 12 -16 12
-17 -5 -10 -17 6 -17 5 -6 -10 12 -14 11 -16 -7 -12 -11 2 -24 -1 -27 -7 -4
-6 -2 -8 4 -4 6 3 13 2 17 -4 3 -5 0 -10 -8 -10 -10 0 -14 -7 -10 -22 4 -19 3
-20 -7 -8 -10 12 -11 11 -7 -8 5 -20 3 -22 -11 -10 -9 7 -14 9 -10 4 13 -15
-10 -45 -30 -39 -10 2 -25 -3 -33 -13 -8 -10 -9 -15 -2 -11 6 4 14 3 18 -3 3
-5 -1 -10 -9 -10 -9 0 -16 -4 -16 -10 0 -5 5 -9 11 -7 6 1 13 -6 14 -16 3 -15
1 -16 -12 -5 -14 11 -15 11 -5 -8 8 -16 8 -24 -1 -33 -9 -10 -8 -11 8 -6 19 6
19 6 3 -8 -21 -16 -24 -32 -5 -21 7 5 6 0 -3 -11 -8 -10 -10 -16 -3 -12 6 4
15 2 19 -5 4 -7 4 -10 -1 -6 -10 10 -45 -10 -45 -25 0 -7 4 -6 10 3 5 8 10 11
10 5 -1 -16 -26 -45 -33 -38 -4 3 -7 1 -7 -6 0 -7 -5 -9 -12 -5 -8 5 -8 2 1
-10 8 -9 10 -16 5 -15 -19 3 -34 -1 -34 -12 0 -5 6 -7 13 -3 8 5 8 2 -2 -9
-14 -18 -26 -23 -16 -8 3 5 1 12 -5 16 -5 3 -10 2 -10 -3 0 -5 -11 -7 -25 -4
-17 3 -25 0 -25 -9 0 -12 -2 -12 -9 0 -7 11 -10 9 -16 -8 -3 -11 -3 -26 1 -33
6 -10 5 -10 -7 -1 -13 11 -15 6 -9 -37 4 -33 3 -50 -4 -51 -6 0 -2 -4 9 -9 17
-7 17 -9 2 -9 -16 -1 -16 -3 2 -37 26 -47 58 -78 64 -61 4 9 6 9 6 -1 1 -7 6
-10 11 -7 6 3 10 -2 10 -12 0 -15 2 -16 10 -3 9 13 10 13 10 0 0 -13 1 -13 10
0 7 11 10 11 10 2 0 -18 48 -64 60 -57 6 4 7 -1 3 -11 -4 -10 -2 -15 3 -11 10
6 10 -11 0 -78 -3 -16 -12 -34 -20 -41 -9 -6 -13 -14 -9 -17 3 -4 1 -7 -6 -7
-7 0 -10 -4 -7 -9 4 -5 -3 -7 -14 -4 -14 4 -20 0 -20 -11 0 -9 -5 -16 -11 -16
-8 0 -7 -6 2 -17 12 -14 12 -16 0 -8 -11 6 -13 4 -8 -9 6 -14 3 -17 -10 -12
-15 5 -15 4 1 -9 12 -9 15 -15 7 -15 -11 0 -11 -3 -1 -15 11 -13 10 -14 -5 -9
-13 5 -16 4 -11 -4 4 -7 2 -12 -6 -12 -11 0 -11 -2 0 -9 7 -4 14 -14 15 -22 2
-8 7 -21 12 -29 7 -13 6 -13 -7 -2 -11 9 -18 10 -23 2 -3 -5 0 -10 7 -10 10 0
10 -2 -1 -9 -11 -7 -11 -9 0 -14 12 -4 12 -7 0 -18 -12 -12 -13 -12 -6 1 8 13
7 13 -9 1 -13 -11 -14 -16 -4 -22 12 -8 11 -10 -12 -13 -6 0 -15 -8 -20 -16
-7 -11 -10 -12 -10 -2 0 10 -4 9 -16 -2 -8 -9 -19 -14 -24 -11 -4 3 -11 -2
-14 -11 -4 -10 -2 -13 7 -8 9 5 9 4 0 -6 -10 -10 -15 -11 -27 -1 -12 10 -14 8
-10 -11 2 -13 2 -17 -2 -10 -8 17 -25 15 -18 -3 5 -11 2 -13 -12 -8 -12 4 -15
3 -10 -5 6 -11 -5 -16 -26 -13 -4 0 -4 -7 -1 -17 3 -9 2 -14 -2 -10 -5 5 -14
-1 -22 -12 -8 -11 -23 -20 -35 -20 -13 0 -18 -5 -15 -14 4 -10 0 -12 -15 -8
-16 4 -19 2 -13 -8 6 -10 4 -12 -7 -7 -10 3 -15 0 -14 -10 1 -18 -31 -26 -41
-11 -4 7 -1 8 7 3 9 -6 11 -4 6 4 -5 7 -14 10 -22 7 -7 -3 -16 0 -20 6 -4 7
-3 8 4 4 7 -4 12 -2 12 3 0 6 -5 11 -11 11 -5 0 -7 5 -4 10 4 6 1 9 -7 8 -7
-2 -12 2 -11 9 2 7 -6 10 -16 8 -15 -3 -18 1 -13 18 3 12 2 19 -3 15 -4 -4
-14 0 -22 8 -8 8 -19 12 -24 9 -5 -4 -9 5 -9 19 0 29 -19 44 -31 25 -5 -8 -9
-9 -9 -3 0 5 6 16 13 23 10 11 10 13 0 7 -9 -5 -13 0 -13 14 0 14 4 19 13 14
10 -6 10 -4 0 7 -15 16 -17 65 -3 74 6 4 7 -1 4 -12 -5 -13 -1 -11 11 5 9 13
14 30 11 38 -3 8 1 17 10 21 13 5 13 7 2 14 -10 7 -9 9 5 9 11 0 17 6 15 18
-2 12 3 16 16 14 12 -2 16 1 10 9 -5 9 -2 10 12 5 15 -6 17 -5 7 5 -7 7 -13
17 -13 23 0 5 3 6 7 3 3 -4 12 1 20 11 8 9 12 11 8 5 -7 -15 11 -18 20 -3 4 6
11 8 16 5 26 -17 45 -12 47 11 2 22 -28 50 -41 38 -3 -3 -3 5 0 18 6 21 5 22
-13 8 -10 -8 -16 -11 -12 -6 12 14 -12 48 -28 42 -8 -3 -13 -2 -10 3 3 5 -1
14 -9 21 -13 11 -14 10 -10 -3 4 -8 1 -18 -6 -23 -7 -4 -10 -3 -6 3 4 6 0 14
-9 17 -12 5 -15 2 -10 -11 6 -17 5 -17 -8 0 -10 13 -15 15 -18 5 -4 -10 -9
-10 -23 2 -17 13 -18 13 -13 -1 5 -13 2 -16 -15 -11 -20 5 -21 4 -7 -13 9 -11
10 -16 3 -11 -8 4 -13 2 -13 -4 0 -6 -4 -9 -9 -6 -5 4 -7 -3 -4 -14 3 -12 0
-20 -6 -20 -7 0 -9 5 -5 12 5 7 3 8 -5 4 -7 -5 -10 -14 -7 -22 4 -9 -2 -14
-15 -14 -16 0 -19 -4 -15 -17 4 -10 4 -14 0 -10 -4 4 -13 -1 -21 -11 -8 -9
-11 -11 -7 -3 5 10 3 12 -5 7 -7 -5 -10 -14 -7 -22 3 -9 -1 -14 -12 -15 -10 0
-12 -3 -4 -6 6 -2 12 -9 12 -14 0 -6 -5 -7 -12 -3 -8 5 -9 0 -6 -14 4 -12 2
-22 -3 -22 -11 0 1 -32 15 -42 7 -5 7 -8 -1 -8 -7 0 -13 -7 -13 -15 0 -8 -6
-15 -12 -15 -9 0 -8 -3 2 -9 8 -6 17 -8 21 -5 9 5 5 -23 -4 -32 -4 -4 -7 -12
-7 -18 0 -6 5 -4 10 4 7 12 9 10 7 -7 0 -12 -5 -19 -11 -16 -5 4 -7 -1 -3 -11
5 -13 3 -17 -7 -13 -11 4 -11 1 -2 -19 6 -13 15 -24 19 -24 5 0 6 -4 2 -9 -3
-5 1 -16 9 -24 8 -8 12 -17 9 -21 -4 -3 -1 -6 5 -6 7 0 12 -6 12 -14 0 -7 10
-21 23 -30 19 -14 20 -15 2 -9 -11 3 -17 3 -13 -2 4 -4 3 -14 -3 -22 -9 -10
-8 -17 1 -28 7 -9 10 -18 6 -22 -3 -3 -6 -2 -6 4 0 5 -7 10 -15 10 -8 0 -12
-4 -9 -9 5 -8 -9 -12 -34 -9 -15 2 -43 -24 -35 -33 4 -3 -1 -6 -11 -6 -9 0
-14 -4 -11 -10 3 -5 1 -10 -6 -10 -7 0 -4 -7 7 -16 10 -8 13 -13 7 -9 -8 4
-13 -1 -13 -14 0 -10 6 -22 13 -24 7 -3 5 -6 -6 -6 -15 -1 -16 -5 -7 -21 6
-11 20 -20 31 -20 11 0 30 -10 42 -21 12 -12 17 -19 11 -16 -7 4 -15 0 -18 -9
-3 -8 -2 -12 4 -9 15 9 12 -49 -2 -64 -7 -8 -8 -11 -3 -8 6 3 17 -4 25 -16 12
-20 12 -21 -3 -9 -10 9 -17 10 -22 2 -3 -5 -2 -10 2 -10 5 0 9 -9 10 -20 1
-11 -3 -18 -8 -14 -5 3 -9 2 -8 -3 4 -26 -3 -53 -13 -51 -8 2 -12 -5 -10 -15
2 -9 -4 -20 -13 -23 -12 -5 -13 -9 -4 -20 9 -11 8 -14 -6 -14 -11 0 -15 -5
-11 -16 3 -8 2 -12 -4 -9 -6 3 -10 1 -10 -5 0 -6 -4 -9 -9 -5 -5 3 -12 1 -16
-5 -3 -5 -2 -10 3 -10 5 0 9 -7 9 -14 0 -8 -3 -15 -6 -14 -22 2 -32 -4 -28
-17 4 -8 1 -17 -5 -21 -7 -5 -8 -2 -4 7 4 8 1 5 -8 -5 -8 -10 -13 -24 -9 -29
4 -7 -1 -8 -13 -4 -18 7 -18 7 0 -8 11 -8 14 -15 8 -15 -7 0 -12 -8 -12 -17 0
-16 -2 -16 -11 -3 -9 12 -10 11 -6 -7 3 -12 2 -22 -2 -21 -18 2 -22 -4 -11
-17 11 -13 10 -14 -5 -9 -13 5 -16 4 -11 -4 4 -7 2 -12 -3 -12 -6 0 -11 -5
-11 -11 0 -18 -27 -39 -54 -41 -13 -1 -22 -6 -20 -10 3 -4 12 -5 22 -2 9 2 5
-2 -11 -9 -15 -7 -24 -17 -20 -21 4 -4 -1 -4 -11 0 -15 6 -17 4 -11 -7 5 -8 4
-11 0 -6 -12 10 -15 38 -4 31 5 -3 9 0 9 5 0 6 -7 11 -15 11 -9 0 -12 6 -8 15
8 22 -23 53 -52 53 -14 0 -22 -4 -19 -9 3 -5 -2 -6 -10 -3 -9 3 -14 10 -11 14
7 12 -21 6 -37 -8 -8 -6 -18 -9 -22 -5 -12 12 -35 12 -33 0 1 -7 -4 -11 -11
-9 -10 2 -10 -2 -1 -19 6 -13 7 -19 1 -15 -6 3 -18 -1 -27 -10 -9 -9 -27 -16
-40 -16 -14 0 -22 -5 -18 -11 3 -6 1 -7 -6 -3 -6 4 -9 11 -6 16 3 4 -1 10 -9
13 -10 4 -12 -1 -9 -16 4 -18 3 -19 -6 -7 -6 8 -11 11 -11 5 0 -5 -4 -4 -9 4
-6 10 -13 5 -25 -19 -9 -18 -16 -39 -16 -47 0 -8 -5 -11 -12 -7 -10 5 -10 3 0
-7 11 -12 14 -12 22 1 7 12 9 10 7 -7 0 -12 -5 -19 -10 -16 -15 9 15 -41 34
-58 10 -9 16 -19 12 -22 -3 -4 2 -9 11 -13 9 -3 16 -10 16 -16 0 -5 -6 -6 -12
-2 -7 3 0 -5 16 -20 17 -15 23 -26 15 -26 -12 0 -12 -2 1 -9 8 -6 18 -7 24 -4
5 4 6 1 0 -8 -15 -24 -17 -62 -2 -54 7 4 4 -1 -7 -10 -17 -13 -18 -17 -6 -25
12 -7 12 -12 3 -23 -7 -7 -8 -18 -4 -22 4 -5 1 -5 -6 -1 -10 6 -13 3 -12 -10
4 -34 0 -45 -12 -38 -8 5 -9 0 -5 -15 4 -18 3 -20 -8 -11 -11 9 -13 8 -11 -7
3 -14 -2 -18 -25 -18 -16 0 -29 3 -29 7 0 4 -7 4 -17 1 -10 -4 -14 -2 -10 4 4
6 1 13 -5 16 -10 3 -10 9 -1 25 11 18 10 20 -4 15 -12 -5 -14 -3 -7 8 24 38 4
44 -41 11 l-20 -14 20 7 c44 15 49 16 23 0 -31 -17 -34 -25 -15 -44 10 -11 8
-11 -13 -1 l-25 13 20 -23 c16 -19 17 -22 3 -17 -11 4 -15 1 -13 -11 4 -25 -7
-39 -15 -18 -6 17 -8 17 -33 -7 -17 -15 -23 -27 -16 -29 6 -2 12 -17 13 -33 1
-35 29 -78 51 -81 9 -1 12 3 9 9 -4 7 3 2 15 -11 12 -12 19 -26 16 -32 -3 -5
3 -13 12 -19 17 -10 17 -10 -1 -11 -12 0 -16 -5 -12 -16 3 -9 6 -18 6 -21 0
-3 8 1 18 8 16 13 16 13 0 -7 -19 -22 -25 -49 -8 -39 11 7 2 -23 -12 -42 -6
-7 -3 -15 9 -22 10 -6 12 -11 6 -11 -15 0 -18 -30 -3 -30 6 0 10 -8 10 -19 0
-10 9 -21 20 -24 11 -3 20 -12 20 -21 0 -10 9 -16 23 -17 21 -1 21 -1 -3 -9
-25 -8 -24 -8 5 -9 23 -1 27 -3 15 -11 -13 -8 -12 -10 2 -10 10 0 17 -6 15
-12 -1 -8 7 -13 20 -12 13 1 20 -3 17 -7 -3 -5 0 -9 6 -9 6 0 9 -4 6 -8 -6
-10 35 -9 51 1 6 4 14 3 18 -3 4 -6 11 -7 17 -4 7 4 8 2 4 -5 -6 -9 -12 -9
-24 1 -14 10 -15 10 -5 -2 14 -16 43 -22 43 -10 0 5 8 7 18 5 9 -2 17 -4 17
-5 0 -10 38 -5 41 5 3 7 13 16 21 19 12 5 13 3 5 -6 -8 -10 -5 -13 13 -13 14
0 21 5 17 13 -3 9 3 11 23 8 22 -4 25 -3 14 10 -10 12 -9 13 6 8 14 -6 16 -4
10 7 -8 12 -6 12 8 0 15 -12 17 -11 17 3 0 9 5 16 11 16 5 0 8 4 4 9 -6 10 46
4 55 -6 3 -3 -5 -3 -17 0 -31 7 -29 -1 2 -13 25 -9 35 -30 14 -30 -5 0 -7 5
-3 12 4 7 3 8 -5 4 -16 -10 -4 -26 22 -27 12 0 16 -3 10 -6 -7 -2 -13 -9 -13
-15 0 -6 6 -8 14 -5 10 4 12 0 8 -15 -4 -16 -2 -19 9 -13 12 7 12 6 1 -7 -10
-13 -9 -18 5 -29 14 -12 16 -12 8 0 -5 10 -4 12 4 7 9 -6 9 -11 -1 -24 -10
-12 -10 -14 0 -8 6 4 12 2 12 -4 0 -6 11 -16 25 -22 19 -9 22 -14 13 -25 -6
-7 -8 -16 -4 -20 3 -3 6 -1 6 5 0 7 3 12 8 12 4 0 7 -17 7 -37 -1 -21 3 -44 8
-50 6 -9 5 -13 -2 -13 -7 0 -9 -5 -5 -12 5 -8 2 -8 -10 1 -15 12 -17 12 -14 0
2 -8 -3 -13 -9 -12 -7 2 -13 -7 -14 -20 0 -21 -1 -21 -9 -2 -5 11 -9 15 -9 9
-1 -5 -8 -19 -17 -30 -8 -10 -13 -13 -9 -6 3 6 1 12 -4 12 -6 0 -11 -7 -11
-15 0 -9 -6 -12 -17 -8 -10 3 -15 2 -11 -2 5 -5 -2 -15 -14 -23 -16 -11 -23
-12 -26 -4 -2 8 -8 7 -19 -3 -8 -8 -18 -13 -23 -10 -13 8 -33 -23 -26 -41 5
-14 4 -15 -8 -5 -16 13 -40 6 -31 -9 3 -4 -3 -7 -13 -6 -9 0 -16 -5 -14 -12 2
-10 -2 -10 -18 -2 -16 8 -20 8 -18 -2 2 -8 -6 -13 -19 -12 -13 1 -20 -3 -16
-11 2 -7 -1 -16 -8 -21 -8 -5 -10 -3 -5 7 5 8 -5 -1 -22 -18 -16 -18 -33 -29
-38 -25 -4 4 -2 -1 5 -11 12 -15 12 -17 0 -12 -20 7 -40 -39 -25 -56 8 -9 7
-11 -6 -6 -22 8 -41 -50 -24 -72 9 -12 8 -13 -3 -6 -9 5 -12 4 -7 -3 4 -6 2
-21 -5 -33 -7 -15 -8 -19 0 -15 7 5 9 1 5 -8 -3 -9 -12 -16 -19 -16 -7 0 -11
-10 -10 -25 2 -14 -1 -23 -6 -19 -8 4 -14 -17 -10 -38 0 -5 -5 -8 -12 -8 -8 0
-7 -4 3 -10 10 -6 11 -10 3 -10 -7 0 -13 -12 -13 -28 0 -15 -6 -34 -12 -41
-10 -11 -10 -13 0 -7 6 4 12 3 12 -2 0 -5 -10 -14 -22 -21 -23 -11 -23 -11 2
-6 l25 5 -23 -12 c-13 -6 -21 -19 -20 -27 2 -9 -3 -22 -12 -29 -8 -8 -9 -11
-2 -7 9 5 12 -2 10 -24 -2 -22 -5 -27 -14 -20 -8 6 -14 4 -18 -7 -4 -10 -1
-21 6 -26 10 -6 9 -12 -6 -23 -11 -8 -14 -15 -8 -15 7 0 12 -5 12 -11 0 -5 -4
-8 -9 -4 -5 3 -12 1 -16 -4 -3 -5 3 -15 12 -21 16 -10 16 -11 1 -6 -11 3 -16
-1 -16 -12 1 -9 -2 -30 -6 -45 -5 -22 -4 -27 6 -21 10 6 9 3 -1 -9 -15 -19
-26 -23 -15 -5 4 7 3 8 -5 4 -6 -4 -9 -16 -6 -27 4 -12 1 -21 -9 -25 -9 -3
-13 -10 -10 -15 3 -5 1 -9 -5 -9 -6 0 -7 -7 -4 -17 5 -12 3 -14 -8 -8 -12 8
-12 6 -1 -8 12 -14 11 -16 -5 -12 -12 2 -20 -2 -20 -10 0 -8 4 -12 9 -9 4 3 5
-2 2 -11 -4 -9 -13 -14 -22 -10 -12 5 -13 3 -2 -10 11 -13 11 -16 -1 -13 -9 2
-14 -6 -14 -23 0 -21 -4 -25 -22 -23 -14 1 -20 -2 -17 -11 3 -7 0 -16 -7 -21
-8 -5 -10 -3 -4 6 5 9 4 11 -4 6 -9 -6 -9 -11 1 -24 10 -12 10 -14 1 -8 -8 4
-13 2 -13 -4 0 -6 -4 -9 -8 -6 -5 3 -9 -1 -9 -9 0 -8 5 -12 11 -9 6 3 3 -1 -7
-9 -10 -8 -16 -19 -15 -23 2 -5 -1 -10 -6 -11 -16 -3 -25 -27 -13 -35 7 -5 2
-8 -13 -9 -14 0 -19 -3 -11 -6 11 -4 9 -10 -9 -23 -12 -9 -24 -28 -25 -41 -4
-43 -5 -44 -15 -29 -9 13 -10 13 -11 0 0 -8 -2 -25 -3 -38 -2 -12 0 -22 4 -22
4 0 7 -7 7 -15 0 -8 -3 -13 -5 -10 -6 6 -32 -43 -32 -60 0 -7 -6 -16 -12 -18
-10 -4 -10 -6 0 -6 6 -1 12 -11 12 -23 0 -18 -2 -20 -10 -8 -7 12 -9 10 -7 -8
1 -25 7 -27 27 -9 8 6 4 -1 -10 -17 -14 -16 -19 -26 -11 -21 10 6 12 2 6 -14
-4 -14 -2 -21 7 -22 7 0 4 -4 -7 -9 -12 -5 -14 -9 -6 -9 9 -1 6 -8 -10 -22
l-24 -21 25 7 25 8 -25 -22 c-14 -13 -19 -19 -11 -15 9 5 12 3 7 -4 -4 -7 -14
-12 -23 -12 -9 0 -13 -6 -9 -15 3 -8 0 -15 -6 -15 -7 0 -3 -7 8 -16 10 -8 14
-13 8 -10 -7 3 -18 -2 -25 -11 -10 -12 -10 -15 -1 -9 10 6 10 2 0 -18 -6 -14
-15 -26 -19 -26 -5 0 -14 -10 -20 -22 l-12 -23 23 20 24 20 -22 -32 c-13 -18
-20 -39 -16 -50 3 -10 2 -14 -3 -8 -10 12 -33 18 -32 8 3 -21 -2 -33 -12 -27
-7 4 -7 -1 1 -16 6 -12 9 -24 6 -28 -3 -3 -6 1 -6 9 -1 9 -4 8 -11 -5 -9 -14
-8 -20 2 -27 11 -7 11 -9 1 -9 -7 0 -10 -5 -6 -12 4 -6 3 -8 -3 -5 -15 9 -36
-19 -27 -35 5 -8 1 -8 -11 2 -17 14 -18 14 -5 -10 13 -24 12 -24 -5 -10 -11 9
-16 10 -11 2 4 -6 2 -12 -3 -12 -6 0 -11 -5 -11 -11 0 -5 5 -7 12 -3 7 4 8 3
4 -5 -6 -9 -11 -9 -24 1 -14 12 -14 10 -2 -11 11 -21 10 -23 -3 -18 -11 4 -14
2 -10 -9 3 -8 -6 -23 -21 -35 -23 -18 -25 -23 -14 -37 10 -12 10 -14 1 -8 -8
4 -13 1 -13 -8 0 -9 -5 -15 -12 -14 -7 2 -12 -2 -13 -9 0 -7 -9 -19 -20 -28
-11 -9 -13 -14 -5 -10 10 4 9 2 -2 -8 -10 -8 -14 -18 -10 -22 4 -5 -2 -5 -12
-1 -20 7 -20 7 0 -16 10 -12 12 -17 4 -11 -20 15 -35 5 -44 -30 -4 -15 -11
-25 -16 -22 -6 3 -10 -1 -10 -9 0 -9 -4 -16 -9 -16 -8 0 -24 -37 -22 -52 0 -4
-7 -4 -16 -1 -9 4 -14 2 -11 -3 10 -16 -11 -56 -27 -51 -10 4 -12 1 -8 -10 5
-13 2 -15 -12 -10 -15 6 -16 5 -5 -8 9 -11 9 -15 1 -15 -7 0 -9 -4 -6 -10 5
-9 -7 -14 -27 -11 -3 0 -5 -11 -3 -25 1 -13 -2 -27 -8 -31 -6 -4 -7 -1 -2 7 5
9 4 11 -3 6 -7 -4 -12 -14 -12 -22 0 -8 -4 -13 -8 -10 -13 8 -36 -40 -27 -55
5 -8 4 -10 -3 -5 -7 4 -12 1 -12 -8 0 -9 -4 -16 -10 -16 -5 0 -10 -9 -10 -20
0 -14 -5 -18 -18 -13 -15 6 -15 5 -3 -10 12 -15 12 -17 -3 -11 -10 4 -16 1
-16 -9 0 -9 -4 -19 -10 -22 -6 -4 -7 1 -4 12 6 15 4 15 -9 -2 -11 -15 -12 -22
-4 -27 8 -5 6 -8 -5 -8 -10 0 -22 -10 -29 -21 -9 -17 -8 -20 2 -14 8 5 10 4 5
-3 -4 -7 -14 -12 -23 -12 -13 0 -13 -3 -3 -15 11 -13 10 -14 -4 -9 -10 4 -18
0 -23 -12 -4 -11 -13 -24 -21 -30 -9 -6 -13 -20 -10 -32 5 -16 2 -20 -14 -17
-14 3 -18 0 -14 -10 3 -8 -4 -24 -16 -34 -12 -12 -18 -26 -15 -35 4 -9 3 -15
-1 -14 -4 1 -15 -2 -25 -7 -14 -6 -15 -10 -6 -21 9 -12 9 -13 -4 -9 -8 4 -18
1 -23 -6 -4 -8 -3 -10 4 -5 16 9 15 4 -3 -30 -8 -16 -15 -24 -15 -19 0 6 -7
-3 -15 -19 -8 -15 -13 -32 -10 -36 3 -4 -1 -10 -9 -13 -24 -9 -12 -42 15 -42
15 0 25 -7 27 -18 2 -9 8 -17 13 -17 5 0 9 -5 9 -11 0 -5 -4 -7 -10 -4 -5 3
-10 -1 -10 -10 0 -10 5 -14 12 -10 7 4 6 1 -3 -7 -9 -7 -15 -21 -13 -31 1 -9
-1 -15 -6 -12 -4 2 -15 -4 -24 -14 -12 -13 -14 -21 -6 -26 5 -3 8 -10 5 -15
-8 -13 38 -20 52 -8 8 6 12 17 9 24 -4 11 -1 11 14 2 10 -7 16 -17 12 -23 -3
-5 1 -4 10 3 14 11 20 9 41 -12 23 -23 36 -83 15 -70 -7 4 -7 0 0 -12 5 -11 7
-25 5 -31 -6 -17 9 -17 26 0 11 10 13 9 7 -1 -4 -6 -2 -12 3 -12 6 0 11 5 11
11 0 5 4 8 9 4 5 -3 13 0 17 6 5 8 3 9 -7 4 -8 -5 -10 -4 -6 0 13 15 35 14 48
-1 7 -9 8 -14 1 -14 -6 0 -13 6 -15 13 -3 6 -4 -1 -4 -18 1 -16 9 -36 17 -43
8 -8 9 -11 3 -7 -9 4 -13 -1 -13 -15 0 -14 -4 -19 -12 -14 -10 6 -10 4 -1 -7
17 -17 17 -32 1 -23 -10 5 -10 4 -1 -6 14 -15 6 -43 -11 -33 -6 3 -2 -4 9 -17
11 -13 14 -20 7 -16 -9 5 -12 -1 -10 -23 1 -17 6 -31 11 -31 4 0 5 -5 2 -10
-4 -6 -12 -7 -18 -3 -7 4 -4 -6 7 -21 10 -16 13 -25 6 -21 -7 4 -11 1 -9 -6 4
-36 -2 -60 -13 -53 -9 6 -9 3 0 -9 12 -14 11 -16 -6 -12 -18 3 -19 0 -12 -26
6 -20 5 -27 -2 -23 -6 4 -8 -1 -3 -16 5 -15 4 -20 -4 -16 -7 5 -9 1 -5 -8 3
-9 10 -16 15 -16 5 0 9 -5 9 -11 0 -6 -6 -9 -14 -6 -10 4 -13 -1 -11 -19 1
-15 -3 -24 -11 -24 -17 0 -18 -37 -1 -43 6 -3 3 -6 -7 -6 -20 -1 -20 -1 0 -16
18 -15 18 -15 0 -8 -14 4 -17 3 -12 -6 4 -6 2 -19 -6 -28 -9 -12 -9 -15 -1 -9
18 10 16 -9 -2 -24 -16 -13 -16 -31 0 -42 6 -4 2 -8 -8 -8 -9 0 -16 -6 -15
-12 2 -7 -5 -12 -14 -12 -11 1 -14 -4 -11 -14 5 -11 3 -13 -7 -7 -9 6 -11 4
-6 -4 5 -7 15 -10 23 -7 8 3 11 1 8 -4 -3 -6 -12 -10 -20 -10 -19 0 -28 -17
-14 -26 8 -5 9 -3 4 6 -5 9 -4 11 4 6 9 -6 8 -13 -3 -31 -12 -17 -13 -26 -4
-31 7 -4 8 -3 4 4 -5 8 -1 10 9 5 13 -4 14 -8 4 -14 -10 -6 -10 -11 1 -26 14
-17 14 -17 -6 0 -20 16 -21 16 -19 -3 1 -11 4 -23 8 -26 14 -14 7 -43 -14 -57
-15 -11 -17 -16 -7 -20 10 -4 10 -6 1 -6 -8 -1 -13 -14 -13 -32 0 -21 4 -28
13 -23 7 4 9 3 4 -2 -5 -5 -13 -10 -18 -10 -22 -3 -23 -5 -9 -14 11 -7 11 -10
2 -10 -7 0 -10 -4 -7 -10 3 -5 -2 -10 -12 -11 -11 0 -13 -3 -5 -6 9 -3 7 -10
-9 -24 -15 -13 -17 -19 -8 -19 11 0 11 -2 -1 -10 -13 -9 -13 -10 0 -10 9 -1 6
-6 -10 -16 -14 -8 -18 -13 -8 -10 10 3 18 -2 20 -12 6 -22 -1 -44 -13 -37 -5
4 -6 -1 -3 -9 3 -9 11 -13 18 -10 6 3 4 0 -5 -8 -9 -7 -14 -18 -12 -25 2 -6
-1 -14 -6 -18 -15 -9 -14 -27 2 -20 6 4 4 0 -6 -8 -15 -12 -15 -16 -3 -20 17
-7 15 -39 -2 -45 -16 -5 -15 -22 0 -18 7 1 10 1 5 -1 -4 -3 -4 -10 -1 -15 4
-7 2 -8 -4 -4 -7 4 -12 2 -12 -4 0 -6 -4 -9 -9 -6 -5 4 -8 -5 -6 -19 1 -16 -3
-25 -12 -25 -12 0 -11 -3 3 -17 15 -16 15 -18 -9 -39 -19 -17 -23 -24 -14 -34
7 -6 8 -11 2 -10 -22 5 -29 -1 -15 -10 13 -8 13 -10 -1 -10 -10 0 -16 -7 -15
-17 0 -10 -4 -17 -11 -16 -7 2 -10 -3 -7 -11 3 -8 0 -17 -7 -22 -8 -5 -10 -3
-4 6 5 9 4 11 -4 6 -9 -6 -9 -11 0 -22 7 -8 7 -14 1 -14 -5 0 -8 -15 -6 -32 1
-18 3 -37 3 -41 1 -5 7 -5 14 -1 9 6 9 5 0 -7 -10 -12 -8 -15 13 -17 13 -1 24
4 24 11 0 8 4 7 10 -3 8 -12 10 -10 11 10 0 14 3 20 6 13 3 -8 12 -5 27 10 13
12 21 27 19 32 -3 6 5 -1 16 -14 12 -13 21 -18 21 -12 0 6 9 11 20 11 11 0 20
6 20 13 0 9 2 9 9 -1 7 -11 9 -10 15 3 3 9 10 14 15 11 5 -4 12 -1 14 4 3 6 4
5 2 -2 -1 -7 -8 -12 -14 -10 -7 1 -10 -1 -7 -6 3 -5 19 -8 36 -7 16 1 30 -1
30 -5 0 -4 14 -4 31 -2 23 3 30 1 24 -7 -5 -9 -1 -9 14 1 18 11 23 11 30 -1 7
-11 10 -11 15 0 3 8 4 4 2 -8 -4 -22 8 -38 28 -38 5 0 11 -7 13 -15 4 -13 3
-13 -6 0 -9 13 -11 13 -11 -1 0 -26 75 -45 84 -22 4 10 11 11 25 4 16 -9 18
-8 13 11 -4 17 -2 20 11 15 9 -3 19 -1 23 5 4 7 3 8 -4 4 -17 -10 -15 3 3 21
11 10 13 19 6 27 -7 9 -5 20 6 36 9 13 11 20 5 16 -6 -4 -10 1 -9 13 1 12 6
17 17 13 8 -3 12 -2 8 3 -4 4 2 16 14 26 14 13 16 19 7 19 -12 0 -12 2 0 9 8
5 11 16 8 26 -4 9 -3 13 2 10 5 -3 12 -1 16 5 3 5 1 10 -5 10 -6 0 -8 5 -5 10
4 6 11 7 17 4 6 -4 6 1 -1 14 -8 15 -8 23 1 28 7 5 9 2 4 -7 -4 -8 0 -5 9 6 9
11 19 19 23 18 4 -2 7 1 7 5 0 14 32 41 40 34 5 -4 5 1 2 11 -5 12 -1 17 13
17 10 0 22 4 25 10 4 6 -1 7 -12 4 -17 -5 -17 -5 -1 9 14 11 15 16 5 26 -9 10
-8 11 5 6 13 -5 16 -2 13 14 -3 15 0 18 13 14 9 -3 14 -3 10 2 -10 11 20 38
33 29 8 -5 9 -3 4 6 -6 10 -4 12 8 7 10 -3 17 -2 17 2 0 5 -6 12 -12 14 -10 4
-10 6 0 6 7 1 10 5 7 11 -3 6 1 7 9 4 10 -4 16 -1 16 8 0 7 9 19 20 26 12 7
18 17 15 22 -3 6 -1 10 5 10 6 0 9 4 6 9 -3 4 4 8 16 7 12 0 24 -8 26 -16 4
-11 2 -13 -9 -5 -8 6 -6 2 4 -8 11 -9 15 -17 9 -17 -6 0 -9 -8 -7 -17 2 -10 4
-22 4 -26 1 -5 7 -5 14 -1 9 6 9 4 1 -7 -16 -20 -25 -61 -12 -53 6 4 8 1 6 -7
-3 -8 -12 -13 -19 -11 -9 1 -7 -3 4 -12 14 -10 15 -15 5 -19 -10 -4 -10 -6 0
-6 6 -1 12 -6 12 -12 0 -5 -4 -8 -9 -4 -10 5 -5 -40 5 -57 3 -4 0 -8 -7 -8 -8
0 -7 -5 2 -17 12 -15 12 -16 -4 -10 -14 5 -16 3 -8 -12 6 -10 7 -22 3 -26 -4
-5 2 -5 12 -1 15 5 17 4 8 -7 -7 -8 -9 -17 -5 -20 3 -4 0 -7 -8 -7 -10 -1 -9
-4 4 -14 15 -12 15 -14 2 -19 -8 -4 -12 -13 -9 -22 3 -8 11 -12 17 -8 6 3 7 1
3 -6 -6 -9 -12 -9 -24 1 -11 8 -10 4 3 -11 11 -13 20 -24 19 -25 -20 -36 -23
-46 -14 -51 5 -3 10 -11 10 -17 0 -6 -6 -6 -15 2 -13 11 -14 9 -1 -15 13 -26
13 -30 -2 -43 -9 -7 -12 -11 -5 -8 6 4 14 2 18 -4 3 -5 1 -10 -5 -10 -6 0 -8
-5 -5 -10 4 -6 12 -8 18 -4 7 3 1 -4 -12 -15 -13 -12 -18 -21 -12 -21 7 0 11
-6 10 -13 -3 -26 1 -60 8 -54 3 4 13 1 21 -6 11 -8 14 -8 9 0 -4 6 -3 14 2 17
5 4 8 -6 6 -20 l-2 -26 21 24 c11 13 20 22 19 19 -2 -2 2 -10 8 -18 8 -9 15
-10 24 -3 9 8 15 8 20 0 5 -8 11 -8 21 1 17 14 94 19 94 6 0 -6 9 -2 21 9 11
10 20 14 19 9 -2 -6 -2 -17 -1 -25 1 -12 4 -12 12 2 5 10 15 18 22 18 8 0 6
-4 -3 -11 -12 -9 -11 -10 6 -6 12 2 29 0 39 -6 13 -7 16 -6 10 3 -5 8 -1 11
11 10 11 -1 21 -1 24 0 17 7 80 4 80 -4 0 -6 5 -5 12 2 15 15 28 15 28 1 0 -5
-5 -7 -12 -3 -7 4 -8 3 -4 -5 6 -9 11 -9 23 1 18 14 73 18 73 5 0 -5 8 -3 17
4 11 10 14 10 9 2 -4 -7 -3 -13 3 -13 5 0 13 5 16 10 3 6 14 7 23 2 20 -9 64
-8 81 2 6 4 11 2 11 -5 0 -8 5 -7 17 2 15 12 16 12 10 -5 -6 -15 -5 -16 6 -8
7 6 26 11 42 11 17 0 42 2 58 4 15 2 27 0 27 -6 0 -5 8 -3 17 4 11 10 14 10 9
1 -4 -6 -3 -12 3 -12 5 0 13 5 16 10 3 6 14 7 23 2 20 -9 64 -8 81 2 6 4 11 2
11 -5 0 -8 5 -7 17 2 15 12 16 12 10 -5 -6 -16 -5 -17 8 -6 8 7 23 10 34 7 10
-2 26 0 35 5 11 6 16 5 16 -3 0 -7 8 -5 21 7 11 10 20 14 19 9 -2 -6 -2 -17
-1 -25 1 -12 4 -12 12 3 5 9 15 17 22 17 8 0 6 -4 -3 -11 -12 -9 -11 -10 6 -6
12 2 29 0 39 -6 12 -6 16 -6 11 1 -3 5 4 12 15 15 14 4 19 1 16 -7 -3 -6 3
-12 13 -12 10 0 16 5 14 11 -3 6 5 11 17 12 15 1 18 -1 10 -11 -8 -10 -6 -12
9 -11 11 1 23 5 27 10 5 4 1 5 -7 0 -12 -7 -13 -6 -2 6 10 11 14 11 21 1 4 -8
15 -10 26 -6 14 6 16 4 10 -7 -7 -12 -6 -12 7 -1 12 9 18 10 23 2 5 -8 10 -8
20 0 10 8 15 8 20 0 5 -8 11 -8 21 1 17 14 94 19 94 6 0 -6 9 -2 19 7 19 17
19 17 16 -11 l-3 -28 15 22 c9 13 21 23 27 23 6 0 4 -5 -4 -11 -12 -9 -11 -10
6 -6 12 2 29 0 39 -6 12 -6 16 -6 11 1 -3 5 4 12 15 15 14 4 19 1 16 -7 -3 -6
3 -12 13 -12 10 0 16 5 14 11 -3 6 5 11 17 12 15 1 18 -1 10 -11 -8 -10 -6
-12 9 -11 11 1 23 5 27 10 5 4 1 5 -7 0 -12 -7 -13 -6 -2 6 10 11 14 11 21 1
4 -8 15 -10 26 -6 14 6 16 4 10 -7 -7 -12 -6 -12 7 -1 12 9 18 10 23 2 5 -8
10 -8 20 0 10 8 15 8 20 0 5 -8 11 -8 21 1 17 14 94 19 94 6 0 -6 9 -2 21 9
11 10 20 14 19 9 -2 -6 -2 -17 -1 -25 1 -12 4 -12 12 3 5 9 15 17 22 17 8 0 6
-4 -3 -11 -12 -9 -11 -10 6 -6 12 2 29 0 39 -6 12 -6 16 -6 11 1 -3 5 4 12 15
15 16 4 19 2 14 -11 -5 -13 -2 -13 14 2 14 13 25 16 33 9 23 -17 47 -22 54
-11 4 7 3 8 -4 4 -7 -4 -12 -2 -12 3 0 14 17 14 25 1 3 -5 13 -6 22 -3 12 5
14 3 8 -8 -8 -12 -6 -12 9 0 21 17 56 22 56 8 0 -5 8 -3 17 4 11 10 14 10 9 2
-4 -7 -3 -13 3 -13 5 0 13 5 16 10 3 6 14 7 23 2 20 -9 64 -8 81 2 6 4 11 2
11 -5 0 -8 5 -7 17 2 15 12 16 12 10 -5 -6 -15 -5 -16 6 -8 7 6 26 11 42 11
17 0 42 2 58 4 15 2 27 0 27 -6 0 -5 8 -3 17 4 11 10 14 10 9 2 -4 -7 -3 -13
3 -13 5 0 13 5 16 10 3 6 14 7 23 2 20 -9 64 -8 81 2 6 4 11 2 11 -5 0 -8 5
-7 17 2 15 12 16 12 10 -5 -6 -16 -5 -17 8 -6 8 7 23 10 34 7 10 -2 26 0 35 5
11 6 16 5 16 -3 0 -7 8 -5 21 7 11 10 20 14 19 9 -2 -6 -2 -17 -1 -25 1 -12 4
-12 12 3 5 9 15 17 22 17 8 0 6 -4 -3 -11 -12 -9 -11 -10 6 -6 12 2 29 0 39
-6 12 -6 16 -6 11 1 -3 5 4 12 15 15 14 4 19 1 16 -7 -3 -6 3 -12 13 -12 10 0
16 5 14 11 -3 6 5 11 17 12 15 1 18 -1 10 -11 -8 -10 -6 -12 9 -11 11 1 23 5
27 10 5 4 1 5 -7 0 -12 -7 -13 -6 -2 6 10 11 14 11 21 1 4 -8 15 -10 26 -6 14
6 16 4 10 -7 -7 -12 -6 -12 7 -1 12 9 18 10 23 2 5 -8 10 -8 20 0 10 8 15 8
20 0 5 -8 11 -8 21 1 17 14 94 19 94 6 0 -6 9 -2 19 7 19 17 19 17 16 -11 l-3
-28 15 23 c9 12 21 22 27 22 6 0 4 -5 -4 -11 -12 -9 -11 -10 6 -6 12 2 29 0
39 -6 12 -6 16 -6 11 1 -3 5 4 12 15 15 14 4 19 1 16 -7 -3 -6 3 -12 13 -12
10 0 16 5 14 11 -3 6 5 11 17 12 15 1 18 -1 10 -11 -8 -10 -6 -12 9 -11 11 1
23 5 27 10 5 4 1 5 -7 0 -12 -7 -13 -6 -2 6 10 11 14 11 21 1 4 -8 15 -10 26
-6 14 6 16 4 10 -7 -7 -12 -6 -12 7 -1 12 9 18 10 23 2 5 -8 10 -8 20 0 10 8
15 8 20 0 5 -8 11 -8 21 1 17 14 94 19 94 6 0 -6 9 -2 21 9 11 10 20 14 19 9
-2 -6 -2 -17 -1 -25 1 -12 4 -12 12 3 5 9 15 17 22 17 8 0 6 -4 -3 -11 -12 -9
-11 -10 6 -6 12 2 29 0 39 -6 12 -6 16 -6 11 1 -3 5 4 12 15 15 16 4 19 2 14
-11 -5 -13 -2 -13 14 2 14 13 25 16 33 9 23 -17 47 -22 54 -11 4 7 3 8 -4 4
-7 -4 -12 -2 -12 3 0 14 17 14 25 1 3 -5 13 -6 22 -3 12 5 14 3 8 -8 -8 -12
-6 -12 9 0 21 17 56 22 56 8 0 -5 8 -3 17 4 11 10 14 10 9 1 -4 -6 -3 -12 3
-12 5 0 13 5 16 10 3 6 14 7 23 2 20 -9 64 -8 81 2 6 4 11 2 11 -5 0 -8 5 -7
17 2 15 12 16 12 10 -5 -6 -15 -5 -16 6 -8 7 6 26 11 42 11 17 0 42 2 58 4 15
2 27 0 27 -6 0 -5 8 -3 17 4 11 10 14 10 9 2 -4 -7 -3 -13 3 -13 5 0 13 5 16
10 3 6 14 7 23 2 20 -9 64 -8 81 2 6 4 11 2 11 -5 0 -8 5 -7 17 2 15 12 16 12
10 -5 -6 -15 -5 -16 6 -8 7 6 26 11 42 11 17 0 39 2 50 4 11 2 23 0 26 -5 3
-4 12 4 20 19 8 16 18 32 24 36 6 6 4 7 -5 4 -11 -3 -15 4 -16 24 -1 24 1 26
10 13 10 -13 12 -11 11 10 -1 14 -5 29 -10 33 -4 5 -5 2 0 -6 5 -9 4 -12 -3
-8 -5 4 -8 16 -5 27 3 11 10 17 17 13 6 -4 5 1 -3 11 -21 25 -22 59 -2 51 13
-5 13 -4 -1 12 -24 28 -30 54 -16 71 8 10 9 13 1 9 -17 -10 -22 14 -8 43 12
27 13 39 4 55 -4 6 -5 20 -4 33 1 12 -2 22 -7 22 -5 0 -6 5 -3 10 3 6 1 10 -5
10 -7 0 -9 7 -6 15 3 9 -1 18 -9 21 -8 4 -12 11 -8 17 9 15 10 66 1 60 -5 -2
-8 0 -8 6 0 5 4 12 8 15 5 3 7 20 5 38 -2 18 -4 43 -4 56 -1 12 -6 25 -12 29
-6 4 -7 1 -2 -7 5 -8 4 -11 -1 -7 -12 7 -12 97 0 116 6 10 5 12 -2 7 -7 -4
-12 -2 -12 3 0 6 5 11 10 11 6 0 10 5 10 11 0 5 -5 7 -12 3 -7 -5 -8 -3 -2 7
11 18 13 79 2 79 -4 0 -7 6 -6 13 2 6 -3 11 -10 9 -9 -1 -11 5 -6 23 4 18 2
27 -10 31 -9 3 -13 10 -10 15 3 5 11 7 17 3 7 -3 4 1 -5 8 -15 13 -15 15 0 24
13 9 13 12 2 19 -9 6 -11 4 -5 -5 6 -9 4 -11 -4 -6 -7 5 -10 11 -7 14 3 3 0
12 -7 21 -11 14 -10 15 7 1 17 -13 19 -13 14 0 -3 8 -1 24 5 35 9 18 9 19 -6
6 -16 -12 -16 -11 -2 22 14 34 14 36 -2 30 -16 -6 -15 -3 2 17 11 13 15 20 9
17 -15 -9 -27 20 -12 29 7 5 8 2 3 -6 -5 -9 -4 -11 4 -6 15 10 5 26 -17 27
-11 0 -12 3 -4 6 18 7 15 33 -5 34 -11 0 -13 3 -5 6 6 2 12 9 12 14 0 6 -6 7
-12 4 -7 -4 -5 0 4 8 10 8 15 17 11 20 -3 4 0 7 8 7 11 0 11 2 -1 10 -13 8
-12 10 3 10 9 0 17 6 17 13 1 6 8 1 16 -13 11 -18 14 -20 10 -5 -6 19 -5 19 8
2 11 -14 19 -16 32 -9 11 6 13 12 6 16 -7 4 -8 15 -3 29 4 12 6 28 4 35 -3 7
1 20 9 29 9 12 9 15 0 9 -16 -9 -16 6 1 23 10 11 9 12 -1 6 -10 -5 -13 -1 -11
16 2 13 -1 30 -5 38 -7 11 -5 13 6 9 9 -4 15 0 15 8 0 9 -6 13 -16 9 -14 -5
-14 -4 1 11 11 12 14 23 8 38 -7 19 -4 22 18 21 15 0 27 6 28 13 1 6 2 19 3
28 0 8 5 13 10 10 10 -7 9 20 -2 30 -4 4 -7 20 -7 36 0 20 -4 27 -12 22 -7 -4
-8 -3 -4 4 4 7 14 12 23 12 11 0 9 5 -8 21 -13 11 -19 18 -13 15 7 -3 18 1 25
10 10 12 10 15 -2 12 -9 -2 -13 4 -11 16 2 13 -1 16 -10 10 -10 -6 -10 -4 1 9
12 15 11 17 -5 18 -11 0 -14 3 -6 6 6 2 9 9 6 14 -3 6 -12 5 -22 -3 -13 -10
-13 -8 1 9 14 16 15 23 6 29 -8 5 -10 3 -4 -7 5 -8 4 -11 0 -6 -12 11 -14 47
-2 47 5 0 4 7 -3 15 -7 8 -17 12 -23 8 -6 -3 -7 -1 -3 6 4 6 11 9 15 7 4 -3 7
6 7 20 0 13 -4 24 -9 24 -5 0 -6 7 -3 15 3 9 -1 18 -10 22 -13 5 -13 7 -2 14
9 6 6 9 -11 9 -13 0 -21 3 -18 7 4 3 1 13 -6 21 -10 13 -9 14 2 7 10 -6 12 -4
7 4 -5 7 -15 10 -25 7 -14 -5 -14 -4 -1 7 22 18 23 37 3 38 -12 0 -13 2 -5 6
10 4 10 8 1 19 -6 8 -16 11 -21 8 -7 -4 -7 0 0 12 11 23 5 47 -10 38 -7 -5 -8
-2 -3 7 15 23 13 50 -2 45 -11 -5 -11 -1 -2 17 11 19 10 21 -3 9 -14 -11 -16
-8 -14 28 2 30 -2 40 -13 40 -14 0 -14 1 -1 10 8 5 10 10 4 10 -7 0 -15 7 -18
16 -5 12 -2 15 10 10 14 -5 15 -4 4 9 -7 8 -16 13 -19 10 -4 -2 -8 2 -8 10 0
8 4 12 9 9 4 -3 8 0 8 5 0 11 -15 15 -34 12 -5 -1 -3 6 5 15 9 12 9 15 2 10
-12 -6 -17 16 -12 51 0 3 -6 10 -15 15 -18 10 -21 28 -5 28 5 0 7 -5 3 -12 -5
-7 -3 -8 5 -4 9 6 8 13 -6 29 -10 11 -12 17 -5 13 18 -10 10 29 -11 51 -9 10
-15 27 -13 38 2 11 -7 27 -18 37 -20 17 -20 18 -1 12 20 -6 20 -6 0 11 -12 9
-16 19 -10 23 13 9 15 42 3 42 -6 0 -8 9 -5 19 3 13 -1 21 -14 24 -12 3 -17
11 -13 20 3 8 0 18 -5 22 -6 3 -8 11 -5 17 10 16 11 67 2 61 -5 -2 -8 1 -8 7
0 6 -4 8 -10 5 -6 -3 -7 1 -4 9 3 9 11 13 18 9 7 -4 7 -2 -1 8 -10 12 -10 18
0 28 9 10 8 11 -8 5 -18 -7 -18 -6 -6 9 11 13 11 17 1 17 -8 0 -10 3 -7 6 3 4
2 15 -3 25 -7 12 -6 19 3 22 7 3 5 6 -5 6 -9 1 -20 5 -23 11 -4 6 1 7 12 3 17
-6 17 -5 2 13 -18 21 -16 68 4 94 8 10 4 9 -9 -3 -20 -16 -21 -16 -19 0 1 10
6 26 10 37 5 11 3 21 -5 26 -7 4 -10 15 -7 23 4 10 -2 17 -16 21 -18 5 -20 8
-7 16 14 9 7 14 -13 11 -5 -1 -7 23 -5 54 3 52 -4 71 -15 43 -4 -10 -6 -10 -6
0 -1 7 5 15 13 18 16 6 13 38 -6 62 -8 9 -8 13 -2 9 7 -4 18 1 25 10 8 9 9 14
3 10 -7 -4 -18 1 -25 10 -8 9 -9 14 -3 10 7 -4 18 1 25 10 8 9 9 14 3 10 -7
-4 -14 0 -18 8 -3 10 1 15 12 16 10 0 12 3 5 6 -7 2 -13 22 -13 43 0 21 -6 41
-12 43 -8 3 -7 6 4 6 9 1 20 6 24 13 4 6 3 9 -2 6 -5 -3 -15 0 -22 8 -11 12
-10 14 3 14 20 0 19 17 -2 29 -17 10 -17 10 0 11 10 0 15 5 12 10 -4 6 -12 7
-18 3 -7 -4 -5 2 3 12 9 11 10 16 3 11 -7 -4 -13 -3 -13 3 0 5 5 13 10 16 7 4
5 14 -4 27 -8 11 -12 27 -9 36 5 11 3 13 -8 7 -11 -7 -11 -5 1 10 8 10 10 16
3 12 -18 -11 -21 16 -5 48 14 28 14 29 -2 16 -9 -8 -19 -11 -23 -7 -3 3 -1 6
5 6 6 0 14 10 18 23 12 35 13 48 3 41 -5 -3 -9 4 -9 15 0 11 5 23 10 26 6 3
10 12 10 18 0 7 -4 6 -10 -3 -8 -12 -10 -10 -10 10 0 15 6 32 13 39 7 9 7 11
1 8 -7 -4 -15 0 -18 9 -3 8 -2 13 3 10 5 -3 11 1 14 8 7 17 -16 39 -29 28 -4
-4 -2 1 5 11 15 19 26 23 15 5 -5 -7 -3 -8 5 -3 9 5 10 10 2 18 -6 6 -11 19
-11 29 0 10 -6 18 -12 18 -9 0 -8 4 2 10 13 8 12 10 -2 10 -10 0 -18 5 -18 11
0 5 4 8 9 4 21 -12 23 19 3 36 -12 9 -22 22 -22 29 0 6 -4 8 -10 5 -7 -4 -7 3
0 20 7 17 7 24 0 20 -6 -3 -10 -1 -10 4 0 6 4 11 10 11 8 0 8 37 -1 48 -1 1
-2 6 -3 11 0 5 -5 13 -10 18 -5 5 -6 2 -1 -6 5 -9 4 -12 -3 -7 -6 4 -9 13 -6
21 4 9 -1 18 -12 22 -16 6 -16 7 2 15 16 7 14 8 -7 5 -16 -2 -26 1 -26 9 0 7
7 10 16 7 13 -4 13 -2 -1 10 -13 10 -15 16 -6 25 9 9 9 12 -1 12 -8 0 -11 6
-7 16 3 8 2 13 -3 10 -5 -3 -12 1 -15 10 -4 10 -2 13 6 8 7 -5 9 0 6 13 -3 11
-1 28 4 37 9 15 -1 21 -26 17 -5 -1 -4 4 3 13 9 11 9 16 0 22 -8 5 -9 3 -4 -6
5 -9 4 -11 -3 -6 -7 4 -12 24 -12 45 0 20 -6 43 -12 50 -11 10 -10 11 4 6 13
-5 15 -2 11 14 -3 12 -10 21 -15 21 -6 0 -5 7 2 15 11 13 10 14 -2 10 -12 -5
-14 0 -10 21 4 21 2 25 -9 20 -8 -4 -5 0 5 8 18 14 15 21 -7 17 -4 -1 -3 8 3
18 8 16 6 23 -12 35 -12 9 -17 16 -10 16 6 0 12 5 12 11 0 5 -4 7 -10 4 -14
-9 -12 8 3 24 10 11 9 12 -2 6 -11 -6 -13 -3 -9 13 4 12 1 22 -4 22 -6 0 -5 6
2 15 11 13 10 14 -5 9 -12 -5 -16 -4 -12 3 4 6 2 13 -5 15 -14 5 -20 38 -6 38
5 0 3 7 -6 15 -8 9 -12 23 -9 32 4 10 2 14 -4 10 -6 -4 -13 2 -16 13 -3 11 -1
18 4 14 5 -3 9 0 9 5 0 6 -7 11 -15 11 -21 0 -66 51 -60 68 3 7 1 11 -4 7 -5
-3 -16 1 -24 9 -8 8 -18 12 -23 8 -5 -4 -2 1 5 11 10 12 10 17 1 17 -6 0 -10
6 -7 13 2 6 11 11 21 9 9 -2 16 4 16 13 0 9 4 14 8 11 4 -2 14 0 22 5 13 8 13
10 0 19 -8 5 -10 10 -4 10 5 0 16 -6 23 -12 9 -9 12 -9 7 -1 -3 6 -1 13 5 15
6 2 12 17 12 33 0 17 2 25 4 18 2 -7 11 -9 18 -6 12 4 12 7 0 20 -8 8 -15 20
-14 26 0 9 2 8 6 0 2 -7 9 -13 14 -13 6 0 7 5 4 10 -4 6 -2 17 5 25 9 10 7 16
-7 24 -17 10 -17 10 0 11 10 0 15 5 12 10 -4 6 -11 8 -16 5 -5 -3 -6 1 -3 9 3
9 2 16 -3 16 -5 0 -7 18 -5 40 2 22 8 38 12 35 5 -3 7 3 5 12 -1 10 3 24 9 32
8 11 8 13 -1 7 -14 -8 -18 6 -6 18 11 10 12 37 2 30 -5 -3 -9 2 -9 10 0 9 6
16 13 16 9 0 8 3 -2 9 -11 7 -11 9 0 14 11 4 11 6 1 6 -7 1 -10 6 -7 11 3 6 1
10 -5 10 -6 0 -9 4 -6 9 7 10 -18 22 -36 17 -7 -1 -9 -1 -5 2 4 2 0 10 -9 17
-23 17 -27 45 -6 45 11 0 13 3 6 8 -7 4 -10 19 -9 35 2 15 -1 25 -6 22 -5 -4
-6 1 -3 9 3 9 10 13 15 10 5 -3 6 2 3 10 -3 9 -10 13 -15 10 -5 -3 -6 2 -3 10
3 9 11 13 18 10 6 -3 3 1 -7 9 -16 13 -15 15 13 27 26 11 29 15 18 29 -12 14
-11 14 4 2 10 -7 16 -17 13 -21 -3 -4 3 -14 12 -21 12 -10 14 -10 9 -1 -4 6
-3 12 2 12 6 0 12 -6 15 -13 6 -17 56 -14 68 4 6 10 9 10 9 1 0 -16 58 -12 72
6 9 10 8 16 -3 23 -10 7 -6 8 14 5 25 -4 27 -3 15 11 -9 12 -9 15 0 9 11 -7
17 5 13 28 -1 5 6 3 15 -5 12 -9 15 -9 10 -1 -4 6 -2 12 4 12 8 0 7 6 -1 21
-8 15 -8 19 0 15 20 -13 32 4 20 26 -7 13 -7 18 -1 14 6 -3 13 -2 17 4 3 5 1
10 -4 10 -6 0 -11 5 -11 10 0 6 7 10 16 10 8 0 12 5 9 10 -3 6 -1 10 4 10 6 0
11 15 11 33 0 18 5 38 11 44 9 9 6 11 -12 7 -13 -2 -18 -2 -11 2 6 3 12 10 12
15 0 6 -4 8 -9 4 -5 -3 -12 -1 -15 4 -4 5 2 12 11 14 14 4 13 5 -4 6 -13 0
-23 6 -23 12 0 5 4 8 9 5 11 -7 8 21 -4 31 -4 5 -4 1 0 -7 8 -13 7 -13 -8 -1
-18 15 -23 26 -7 16 6 -3 10 1 10 9 0 8 -8 17 -17 19 -17 4 -17 5 0 6 21 1 22
14 2 31 -9 7 -13 15 -10 18 10 10 -33 31 -68 34 -24 1 -33 6 -30 15 3 7 -2 16
-11 19 -9 3 -13 10 -10 15 3 5 -2 9 -10 9 -9 0 -16 5 -16 10 0 6 -5 10 -11 10
-5 0 -7 -5 -3 -12 4 -7 3 -8 -4 -4 -6 4 -8 14 -5 23 4 11 3 14 -5 9 -7 -4 -15
-1 -18 8 -3 9 -10 13 -15 10 -5 -3 -9 -2 -8 3 4 21 -2 33 -17 33 -8 0 -13 4
-10 8 2 4 1 14 -5 22 -7 12 -9 9 -10 -10 0 -23 -1 -23 -8 -5 -5 11 -6 25 -3
30 3 6 -1 4 -10 -3 -13 -10 -17 -10 -21 0 -4 10 -7 10 -15 -1 -8 -11 -14 -10
-36 4 -14 10 -26 22 -26 29 0 7 -3 7 -8 1 -9 -13 -35 -18 -27 -5 3 6 -4 10
-17 11 -21 0 -21 1 -4 8 18 7 18 8 2 14 -9 4 -14 11 -11 17 3 5 1 10 -4 10 -6
0 -10 6 -8 13 1 6 -5 12 -14 11 -9 -1 -16 5 -16 12 0 7 5 11 10 7 5 -3 4 4 -2
15 -15 28 -14 55 2 46 8 -5 7 -2 -2 9 -8 10 -11 20 -7 24 3 3 6 0 6 -8 0 -12
2 -12 9 0 7 10 4 19 -7 29 -9 7 -12 11 -5 8 7 -4 6 4 -3 24 -9 16 -23 30 -32
31 -14 0 -13 2 3 9 17 7 17 9 3 9 -10 1 -18 5 -18 9 0 4 -8 8 -17 9 -59 3 -72
7 -61 20 8 10 7 12 -5 7 -12 -4 -14 0 -10 18 4 18 3 20 -6 8 -9 -12 -11 -11
-11 8 0 12 -5 22 -11 22 -8 0 -7 6 2 17 8 9 9 14 3 10 -7 -4 -15 0 -18 9 -3 8
-2 13 3 10 17 -11 20 22 4 43 -8 12 -12 25 -9 28 3 3 1 12 -5 20 -9 10 -8 13
0 13 7 0 9 5 6 10 -4 6 -10 8 -14 6 -11 -7 -10 27 1 41 5 7 7 21 3 33 -4 12
-1 28 7 37 7 9 8 14 2 10 -7 -4 -14 0 -18 8 -3 8 0 17 6 21 7 5 8 2 3 -7 -5
-8 -4 -10 0 -6 8 7 15 28 17 54 1 7 5 10 10 7 5 -3 6 -9 3 -14 -3 -4 3 -7 12
-5 10 1 17 9 17 17 -1 8 4 15 11 15 7 0 12 -5 11 -11 -2 -6 -1 -8 1 -3 3 4 12
7 21 8 12 0 13 2 4 6 -10 4 -9 9 5 20 10 8 13 12 7 9 -15 -8 -26 21 -12 30 7
5 8 2 3 -6 -5 -8 -4 -11 3 -7 5 4 8 16 5 27 -3 11 -8 18 -12 16 -4 -3 -13 0
-21 6 -12 8 -12 9 2 4 14 -4 17 0 16 19 -1 14 -8 25 -16 25 -7 0 -10 5 -7 10
3 6 0 10 -8 10 -11 0 -15 16 -16 66 -1 50 2 64 11 58 9 -5 9 -2 -1 9 -12 16
-12 17 5 10 17 -6 18 -5 5 11 -13 15 -13 19 0 27 11 7 10 9 -6 10 -11 0 -14 3
-7 6 13 5 16 35 5 47 -15 14 -11 35 5 29 15 -4 15 -3 0 10 -17 13 -16 15 5 25
15 7 17 11 6 11 -12 1 -14 9 -11 31 3 20 0 30 -9 30 -10 0 -10 3 -1 12 10 10
7 15 -10 26 -13 8 -15 11 -5 8 9 -3 17 -3 17 1 0 3 -8 12 -17 20 -10 8 -13 12
-7 9 6 -3 11 1 11 9 0 8 -3 13 -6 12 -15 -4 -71 29 -71 42 0 8 -3 12 -6 8 -4
-3 -13 1 -21 9 -8 8 -18 12 -23 9 -5 -3 -11 4 -15 15 -4 13 -15 20 -31 20 -13
0 -24 4 -24 9 0 17 -70 18 -81 2 -8 -12 -12 -13 -15 -3 -3 6 -10 12 -15 12 -6
0 -7 -4 -4 -10 3 -5 1 -10 -4 -10 -6 0 -18 -15 -26 -32 -8 -18 -13 -25 -11
-16 3 10 1 20 -5 23 -5 4 -9 3 -8 -2 1 -4 1 -15 0 -23 -1 -13 -2 -13 -11 0 -8
12 -10 10 -11 -10 0 -23 -1 -23 -9 -5 -5 11 -9 16 -9 11 -1 -5 -9 -2 -18 5
-11 10 -14 10 -9 2 4 -7 3 -13 -2 -13 -12 0 -22 25 -22 55 0 13 -10 31 -22 39
-12 9 -17 16 -10 16 10 0 9 4 -2 16 -20 20 -20 28 0 20 10 -4 13 -2 7 7 -8 13
-11 23 -15 52 -2 11 -9 24 -16 28 -7 5 -10 12 -7 18 4 5 1 9 -5 9 -6 0 -8 5
-4 13 6 9 3 8 -9 -1 -14 -12 -16 -11 -14 7 1 12 5 21 9 21 5 0 3 10 -4 23 -7
12 -12 26 -13 30 0 5 -8 14 -18 22 -10 7 -15 19 -11 28 3 10 -2 20 -15 27 -12
6 -21 16 -20 23 0 9 2 9 6 -1 2 -6 9 -9 14 -6 6 3 -4 19 -20 35 -17 16 -26 29
-21 29 16 0 12 14 -10 38 -11 12 -20 26 -20 32 0 6 -6 8 -12 4 -8 -5 -7 0 2
11 8 10 10 16 5 13 -6 -4 -17 2 -24 14 -7 11 -8 17 -2 14 5 -4 9 2 8 14 -1 11
-7 18 -13 16 -18 -7 -25 5 -13 21 9 10 8 13 -2 13 -11 0 -11 3 1 11 12 9 10
10 -8 6 -17 -4 -21 -2 -14 6 12 14 -11 40 -24 29 -5 -4 -2 1 5 11 11 14 11 17
-2 17 -8 0 -18 7 -21 16 -6 15 -4 15 11 3 15 -12 15 -11 -1 8 -10 13 -22 20
-27 18 -4 -3 -11 -1 -14 5 -4 6 -3 10 2 9 25 -4 35 3 14 12 -20 8 -22 11 -10
26 8 10 9 14 2 10 -7 -5 -13 1 -15 15 -2 13 -10 23 -18 23 -9 0 -14 8 -12 18
2 9 -3 17 -10 17 -10 0 -10 2 1 9 10 7 8 12 -10 25 -15 10 -18 16 -9 16 9 1 6
6 -8 13 -26 15 -58 57 -43 57 6 0 11 -5 11 -12 0 -6 3 -8 6 -5 9 9 -16 38 -27
31 -5 -3 -9 2 -9 11 0 10 -5 13 -12 9 -10 -6 -10 -5 0 8 10 12 9 18 -3 28 -8
7 -12 16 -9 21 3 5 -5 9 -18 9 -17 0 -19 3 -9 9 9 6 10 10 2 12 -6 2 -13 15
-16 29 -3 13 -16 34 -29 45 -20 17 -23 24 -13 35 9 10 9 11 0 6 -7 -4 -13 -2
-13 4 0 6 -4 8 -10 5 -5 -3 -10 3 -10 15 0 12 -4 18 -10 15 -5 -3 -10 3 -10
14 0 12 -12 27 -27 36 -16 9 -19 14 -9 10 16 -5 17 -3 6 10 -7 8 -17 12 -24 8
-6 -4 -5 1 3 10 12 15 11 17 -2 17 -11 0 -14 5 -10 17 5 12 3 14 -7 8 -10 -6
-12 -4 -7 8 5 14 -16 42 -32 42 -3 0 -6 10 -5 22 0 12 -2 21 -5 21 -17 -1 -31
3 -30 10 4 21 -3 32 -18 32 -15 0 -16 2 -3 10 13 8 12 10 -4 10 -11 0 -17 3
-13 6 9 10 -27 41 -43 37 -10 -3 -9 -1 3 7 21 14 13 30 -16 31 -12 0 -16 3 -9
6 21 8 13 22 -10 18 -16 -4 -19 -2 -10 7 15 15 16 32 2 23 -5 -3 -10 1 -10 10
0 9 -4 13 -10 10 -5 -3 -10 3 -10 14 0 12 -5 21 -11 21 -5 0 -7 -6 -3 -12 5
-9 3 -9 -9 1 -9 7 -14 18 -10 25 3 6 3 8 -2 4 -4 -4 -15 -2 -23 5 -13 10 -15
9 -9 -7z m-38 -264 c-3 -3 -11 0 -18 7 -9 10 -8 11 6 5 10 -3 15 -9 12 -12z
m319 -70 c3 -5 -1 -9 -9 -9 -8 0 -12 4 -9 9 3 4 7 8 9 8 2 0 6 -4 9 -8z m573
-1038 c-3 -3 -12 -4 -19 -1 -8 3 -5 6 6 6 11 1 17 -2 13 -5z m24 -77 c-10 -9
-11 -8 -5 6 3 10 9 15 12 12 3 -3 0 -11 -7 -18z m34 -36 c3 -5 2 -12 -3 -15
-5 -3 -9 1 -9 9 0 17 3 19 12 6z m-1340 -219 c-3 -3 -11 0 -18 7 -9 10 -8 11
6 5 10 -3 15 -9 12 -12z m1440 -70 c-3 -3 -11 0 -18 7 -9 10 -8 11 6 5 10 -3
15 -9 12 -12z m230 -10 c-3 -3 -11 0 -18 7 -9 10 -8 11 6 5 10 -3 15 -9 12
-12z m85 -22 c0 -5 -2 -10 -4 -10 -3 0 -8 5 -11 10 -3 6 -1 10 4 10 6 0 11 -4
11 -10z m-161 -111 c7 11 10 9 16 -9 l7 -23 14 24 14 24 -4 -27 c-4 -25 -3
-27 15 -18 15 9 19 7 19 -5 0 -12 6 -15 23 -10 15 4 18 3 8 -3 -11 -8 -10 -14
3 -34 9 -14 13 -29 9 -33 -5 -5 0 -3 10 4 9 8 20 11 24 7 3 -3 1 -6 -5 -6 -7
0 -12 -9 -12 -21 0 -11 4 -18 8 -15 4 2 13 -4 20 -14 7 -12 8 -21 2 -25 -13
-8 -13 -25 1 -25 5 0 7 5 3 12 -5 7 -3 8 5 4 9 -6 8 -13 -5 -28 -16 -16 -16
-21 -4 -28 8 -6 11 -10 5 -10 -5 0 -3 -5 5 -10 13 -8 12 -10 -3 -10 -10 0 -15
-4 -12 -10 3 -5 -2 -10 -12 -11 -10 0 -13 -3 -5 -6 6 -2 12 -9 12 -14 0 -6 -4
-8 -9 -5 -5 3 -15 -1 -22 -10 -10 -13 -10 -17 2 -25 8 -5 9 -9 4 -9 -6 0 -17
6 -24 13 -10 10 -12 8 -9 -7 2 -14 -4 -22 -22 -27 -21 -6 -21 -7 -5 -8 18 -2
19 -2 3 -12 -10 -5 -18 -16 -18 -23 0 -7 -7 -13 -15 -13 -11 0 -12 4 -4 14 16
18 4 17 -15 -2 -13 -14 -15 -13 -13 4 0 11 4 18 8 15 4 -2 11 1 15 7 4 7 3 9
-3 6 -6 -4 -19 3 -29 15 -12 13 -13 18 -4 13 8 -5 5 4 -8 19 -12 16 -22 34
-22 40 0 6 5 4 10 -4 7 -12 9 -10 8 7 -2 14 -7 19 -18 15 -13 -5 -13 -3 -1 11
9 11 10 17 2 17 -6 0 -11 5 -11 11 0 5 5 7 11 3 8 -5 8 -1 0 13 -6 11 -7 23
-4 27 3 3 -3 6 -15 6 -12 0 -22 5 -22 11 0 5 5 7 11 3 8 -4 8 0 0 15 -7 12 -9
27 -5 33 5 7 3 8 -6 3 -10 -6 -12 -3 -8 12 3 11 1 29 -5 39 -22 38 -13 52 26
45 5 -1 6 3 2 9 -3 6 -10 8 -15 5 -5 -3 -11 -2 -14 3 -3 5 1 9 9 10 8 1 22 3
30 4 8 1 15 8 15 17 0 14 2 14 10 1 8 -13 11 -13 19 -1z m-2319 -493 c0 -3 -4
-8 -10 -11 -5 -3 -10 -1 -10 4 0 6 5 11 10 11 6 0 10 -2 10 -4z m3238 -1151
c-3 -3 -9 2 -12 12 -6 14 -5 15 5 6 7 -7 10 -15 7 -18z m-4148 -383 c0 -8 -1
-13 -3 -11 -1 2 -9 12 -16 22 -12 15 -12 17 3 11 9 -3 16 -13 16 -22z m3875
-84 c-9 -6 -19 -7 -22 -4 -4 3 -1 6 6 6 7 0 9 4 6 10 -4 6 1 7 11 3 15 -6 15
-7 -1 -15z m-20 -128 c3 -5 1 -10 -4 -10 -6 0 -11 5 -11 10 0 6 2 10 4 10 3 0
8 -4 11 -10z m-3336 -643 c0 -9 -2 -8 -6 1 -2 6 -10 9 -15 6 -7 -4 -8 -2 -4 5
9 13 26 5 25 -12z m3476 -425 c-3 -3 -11 0 -18 7 -9 10 -8 11 6 5 10 -3 15 -9
12 -12z m205 -1006 c0 -3 -4 -8 -10 -11 -5 -3 -10 -1 -10 4 0 6 5 11 10 11 6
0 10 -2 10 -4z m17 -192 c-3 -3 -12 -4 -19 -1 -8 3 -5 6 6 6 11 1 17 -2 13 -5z
m202 -1258 c9 -11 9 -16 -1 -22 -7 -4 -10 -4 -6 1 4 4 3 14 -3 22 -6 7 -9 13
-6 13 2 0 10 -6 16 -14z m-5472 -92 c-3 -3 -12 -4 -19 -1 -8 3 -5 6 6 6 11 1
17 -2 13 -5z m5687 -592 c3 -5 -1 -9 -9 -9 -8 0 -12 4 -9 9 3 4 7 8 9 8 2 0 6
-4 9 -8z m63 -348 c-3 -3 -12 -4 -19 -1 -8 3 -5 6 6 6 11 1 17 -2 13 -5z
m-5227 -1064 c0 -5 -8 -10 -17 -10 -15 0 -16 2 -3 10 19 12 20 12 20 0z m5166
-325 c-1 -8 -5 -17 -8 -21 -5 -4 -4 16 1 34 3 9 9 -1 7 -13z m-5606 -291 c0
-8 -19 -13 -24 -6 -3 5 1 9 9 9 8 0 15 -2 15 -3z"/>
<path d="M5375 8800 c3 -5 8 -10 11 -10 2 0 4 5 4 10 0 6 -5 10 -11 10 -5 0
-7 -4 -4 -10z"/>
<path d="M5335 8680 c-3 -5 -1 -10 4 -10 6 0 11 5 11 10 0 6 -2 10 -4 10 -3 0
-8 -4 -11 -10z"/>
<path d="M5022 8234 c-7 -8 -8 -14 -3 -14 10 0 25 19 20 25 -2 1 -10 -3 -17
-11z"/>
<path d="M7230 7842 c0 -5 7 -9 15 -9 8 0 12 4 9 9 -3 4 -9 8 -15 8 -5 0 -9
-4 -9 -8z"/>
<path d="M7605 6341 c-3 -5 -2 -12 3 -15 5 -3 9 1 9 9 0 17 -3 19 -12 6z"/>
<path d="M4075 6150 c-3 -5 -1 -10 4 -10 6 0 11 5 11 10 0 6 -2 10 -4 10 -3 0
-8 -4 -11 -10z"/>
<path d="M2486 2553 c-6 -14 -5 -15 5 -6 7 7 10 15 7 18 -3 3 -9 -2 -12 -12z"/>
<path d="M2526 2145 c4 -8 11 -15 16 -15 6 0 5 6 -2 15 -7 8 -14 15 -16 15 -2
0 -1 -7 2 -15z"/>
<path d="M2380 621 c0 -6 4 -13 10 -16 6 -3 7 1 4 9 -7 18 -14 21 -14 7z"/>
<path d="M2336 454 c-5 -14 -4 -15 9 -4 17 14 19 20 6 20 -5 0 -12 -7 -15 -16z"/>
<path d="M3856 47 c3 -10 9 -15 12 -12 3 3 0 11 -7 18 -10 9 -11 8 -5 -6z"/>
<path d="M4176 47 c3 -10 9 -15 12 -12 3 3 0 11 -7 18 -10 9 -11 8 -5 -6z"/>
<path d="M4906 47 c3 -10 9 -15 12 -12 3 3 0 11 -7 18 -10 9 -11 8 -5 -6z"/>
<path d="M5776 47 c3 -10 9 -15 12 -12 3 3 0 11 -7 18 -10 9 -11 8 -5 -6z"/>
<path d="M6096 47 c3 -10 9 -15 12 -12 3 3 0 11 -7 18 -10 9 -11 8 -5 -6z"/>
<path d="M6826 47 c3 -10 9 -15 12 -12 3 3 0 11 -7 18 -10 9 -11 8 -5 -6z"/>
<path d="M7696 47 c3 -10 9 -15 12 -12 3 3 0 11 -7 18 -10 9 -11 8 -5 -6z"/>
<path d="M8016 47 c3 -10 9 -15 12 -12 3 3 0 11 -7 18 -10 9 -11 8 -5 -6z"/>
</g>
</svg>
